<svg height="512" viewBox="0 0 64 64" width="512" xmlns="http://www.w3.org/2000/svg"><g id="saturn"><circle cx="32" cy="32" fill="#00b6bd" r="22"/><path d="m54 32a22 22 0 0 1 -22 22c-.34 0-.67-.01-1-.03a21.992 21.992 0 0 0 0-43.94c.33-.02.66-.03 1-.03a22 22 0 0 1 22 22z" fill="#009698"/><circle cx="59" cy="25" fill="#ffde55" r="2"/><path d="m57.46 6.54c2.41 2.42.18 8.91-5.21 16.85v.01a110.741 110.741 0 0 1 -13.18 15.67 110.741 110.741 0 0 1 -15.67 13.18h-.01c-6.69 4.54-12.34 6.84-15.41 6.01a2.112 2.112 0 0 0 .02-.26 2.006 2.006 0 0 0 -2-2 2.112 2.112 0 0 0 -.26.02c-.83-3.07 1.47-8.72 6.01-15.41a20.9 20.9 0 0 0 2.27 4.05.251.251 0 0 0 .04.07c-3.83 5.13-5.72 8.87-4.69 9.9s4.77-.86 9.9-4.69a161.694 161.694 0 0 0 16.27-14.4 161.694 161.694 0 0 0 14.4-16.27c3.83-5.13 5.72-8.87 4.69-9.9-.77-.77-3.03.08-6.26 2.15l-1.37-2.52a2 2 0 0 0 2-1.99v-.01c3.95-1.67 6.97-1.94 8.46-.46z" fill="#ffde55"/><path d="m52.25 23.4a21.81 21.81 0 0 1 1.75 8.6c-2.16 1.35-3.64 1.64-7 5-5.58 5.59-4.42 6.41-10 12-2.4 2.4-3.48 4.07-5 5a21.81 21.81 0 0 1 -8.6-1.75 110.741 110.741 0 0 0 15.67-13.18 110.741 110.741 0 0 0 13.18-15.67z" fill="#2488ff"/><path d="m49 7v.01a2 2 0 0 1 -2 1.99 1.94 1.94 0 0 1 -1.22-.42h-.01a2 2 0 1 1 3.23-1.58z" fill="#2488ff"/><path d="m47 9 1.37 2.52c-1.11.71-2.33 1.56-3.64 2.54a21.331 21.331 0 0 0 -4.12-2.31 59.861 59.861 0 0 1 5.16-3.17h.01a1.94 1.94 0 0 0 1.22.42z" fill="#ffde55"/><path d="m46.14 15.14a22.255 22.255 0 0 1 3.8 4.13 161.694 161.694 0 0 1 -14.4 16.27 161.694 161.694 0 0 1 -16.27 14.4 21.844 21.844 0 0 1 -5.21-5.21.251.251 0 0 1 -.04-.07c4.18-3.71 5.9-3.36 10.5-7.78 2.37.63 5.41-.32 7.72-2.64 2.98-2.97 3.69-7.13 1.72-9.55.4-.43.84-.89 1.33-1.39 4.99-5 6.72-4.59 10.85-8.16z" fill="#2488ff"/><g fill="#006df0"><path d="m54 32c-2.16 1.35-3.64 1.64-7 5-5.58 5.59-4.42 6.41-10 12-2.4 2.4-3.48 4.07-5 5-.63 0-1.26-.03-1.88-.08 1.46-.94 2.55-2.59 4.88-4.92 5.58-5.59 4.42-6.41 10-12 3.36-3.36 4.84-3.65 7-5a21.977 21.977 0 0 0 -1.05-6.72c.44-.63.88-1.26 1.3-1.88a21.81 21.81 0 0 1 1.75 8.6z"/><path d="m25.06 36.99a6.206 6.206 0 0 1 -.73.07c.06-.06.12-.12.19-.18a3.231 3.231 0 0 0 .54.11z"/><path d="m49.94 19.27a161.694 161.694 0 0 1 -14.4 16.27 161.694 161.694 0 0 1 -16.27 14.4c-.34-.24-.68-.5-1.01-.76a164.28 164.28 0 0 0 15.28-13.64 161.694 161.694 0 0 0 14.4-16.27 21.638 21.638 0 0 0 -2.84-3.27c.33-.26.68-.55 1.04-.86a22.255 22.255 0 0 1 3.8 4.13z"/></g><path d="m36.66 10.5c-1.86 1.14-3.19.62-5.36 2.79-2.67 2.66-1.25 4.08-3.92 6.74s-4.08 1.26-6.75 3.92-1.25 4.09-3.92 6.76c-2.61 2.61-4.02 1.32-6.57 3.74a21.939 21.939 0 0 1 -.14-2.45 21.5 21.5 0 0 1 .54-4.84c2.66-2.11 4.13-1.41 7.18-4.46 3.49-3.5 1.79-4.21 5.28-7.7 2.92-2.93 6.54-3.18 9-5a21.673 21.673 0 0 1 4.66.5z" fill="#2488ff"/><path d="m33.96 24.69c1.97 2.42 1.26 6.58-1.72 9.55-2.31 2.32-5.35 3.27-7.72 2.64a4.78 4.78 0 0 1 -2.18-1.22c-2.34-2.35-1.71-6.78 1.42-9.9s7.55-3.76 9.9-1.42a2.423 2.423 0 0 1 .3.35z" fill="#ff7956"/><path d="m32.24 34.24a8.619 8.619 0 0 1 -7.18 2.75 9.371 9.371 0 0 0 5.18-2.75c2.98-2.97 3.69-7.13 1.72-9.55a2.423 2.423 0 0 0 -.3-.35 4.838 4.838 0 0 0 -2.71-1.33 5.394 5.394 0 0 1 4.71 1.33 2.423 2.423 0 0 1 .3.35c1.97 2.42 1.26 6.58-1.72 9.55z" fill="#ff6243"/><circle cx="26" cy="59" fill="#ffde55" r="2"/><circle cx="9" cy="8" fill="#ffde55" r="2"/><path d="m8 58a2.112 2.112 0 0 1 -.02.26 2 2 0 1 1 -2.24-2.24 2.112 2.112 0 0 1 .26-.02 2.006 2.006 0 0 1 2 2z" fill="#2488ff"/><path d="m58.165 5.831c-1.634-1.623-4.495-1.664-8.491-.163a2.989 2.989 0 0 0 -5.386 2.6c-1.226.7-2.5 1.494-3.817 2.373a22.711 22.711 0 0 0 -8.471-1.641 23.026 23.026 0 0 0 -23 23 22.752 22.752 0 0 0 1.634 8.47c-2.634 3.938-6.457 10.51-6.023 14.887a2.99 2.99 0 1 0 4.035 4.028 7.057 7.057 0 0 0 .707.04c4.348 0 10.435-3.559 14.167-6.051a22.725 22.725 0 0 0 8.48 1.626 23.026 23.026 0 0 0 23-23 22.74 22.74 0 0 0 -1.627-8.482c3.497-5.229 8.427-14.039 4.792-17.687zm-26.465 47.154a20.8 20.8 0 0 1 -6.165-1.01 115.043 115.043 0 0 0 14.239-12.2 115.169 115.169 0 0 0 12.2-14.24 20.793 20.793 0 0 1 1 5.91c-.34.2-.671.383-1 .56a21.283 21.283 0 0 0 -5.685 4.286 38.013 38.013 0 0 0 -5.115 6.139 35.867 35.867 0 0 1 -4.884 5.861c-.924.924-1.647 1.73-2.284 2.442a14.383 14.383 0 0 1 -2.306 2.252zm15.3-46.985a1 1 0 1 1 -1 1 1 1 0 0 1 1-1zm-32.919 40.392a22.791 22.791 0 0 0 3.527 3.526c-5.466 3.942-7.179 4.025-7.51 3.985-.039-.331.042-2.045 3.983-7.511zm5.189 2.285a20.8 20.8 0 0 1 -3.888-3.87 28.12 28.12 0 0 1 3.875-2.689 29.53 29.53 0 0 0 5.572-4.159 7.15 7.15 0 0 0 1.179.1 10.079 10.079 0 0 0 6.941-3.109 10.462 10.462 0 0 0 3.041-5.808 6.687 6.687 0 0 0 -.743-4.359c.238-.25.486-.507.751-.777a28.076 28.076 0 0 1 6.272-4.9 30.581 30.581 0 0 0 3.839-2.634 20.868 20.868 0 0 1 2.569 2.8 164.386 164.386 0 0 1 -13.844 15.561 164.231 164.231 0 0 1 -15.564 13.844zm14.74-19.818a8.447 8.447 0 0 1 -2.475 4.677c-2.729 2.729-6.535 3.364-8.485 1.414a4.365 4.365 0 0 1 -1.06-3.809 8.447 8.447 0 0 1 2.475-4.677c2.729-2.729 6.535-3.364 8.485-1.414a4.365 4.365 0 0 1 1.06 3.809zm15.909-11.25a22.754 22.754 0 0 0 -3.527-3.527c5.466-3.942 7.181-4.023 7.51-3.985.039.331-.042 2.045-3.983 7.512zm-5.767-2.733c.131.093.251.2.38.293a29.738 29.738 0 0 1 -3.3 2.224 30.166 30.166 0 0 0 -6.656 5.207c-.224.229-.435.447-.64.66-2.806-2.275-7.551-1.545-10.885 1.79a10.462 10.462 0 0 0 -3.041 5.808 6.3 6.3 0 0 0 1.626 5.506 5.46 5.46 0 0 0 1.075.819 27.52 27.52 0 0 1 -4.489 3.224 30.481 30.481 0 0 0 -3.981 2.751 20.581 20.581 0 0 1 -1.541-2.868.746.746 0 0 0 -.031-.083 20.6 20.6 0 0 1 -1.457-5.373 6.044 6.044 0 0 1 2.409-1.2 7.968 7.968 0 0 0 3.8-2.213 7.945 7.945 0 0 0 2.209-3.794 6.6 6.6 0 0 1 4.67-4.676 7.983 7.983 0 0 0 3.791-2.213 7.916 7.916 0 0 0 2.21-3.785 5.986 5.986 0 0 1 1.706-2.953 6.037 6.037 0 0 1 2.974-1.72 9.91 9.91 0 0 0 1.807-.708 20.622 20.622 0 0 1 3.418 1.1.746.746 0 0 0 .083.031 20.429 20.429 0 0 1 3.863 2.173zm-33.152 17.124a21.008 21.008 0 0 1 .434-4.254 10.994 10.994 0 0 1 2.474-1.346 12.205 12.205 0 0 0 4.52-3 11.44 11.44 0 0 0 2.851-4.166 9.473 9.473 0 0 1 2.429-3.534 14.371 14.371 0 0 1 5.206-3.048 17.82 17.82 0 0 0 3.36-1.644c.127 0 .252.014.379.018a8.27 8.27 0 0 0 -2.059 1.55 7.916 7.916 0 0 0 -2.21 3.785 5.986 5.986 0 0 1 -1.711 2.956 6.052 6.052 0 0 1 -2.966 1.717 7.983 7.983 0 0 0 -3.784 2.2 7.942 7.942 0 0 0 -2.209 3.8 6.027 6.027 0 0 1 -1.714 2.966 6.03 6.03 0 0 1 -2.968 1.715 9.189 9.189 0 0 0 -2.009.816c-.001-.176-.023-.351-.023-.531zm14.158-19.833a12.441 12.441 0 0 0 -2.865 2.126 11.274 11.274 0 0 0 -2.854 4.164 9.511 9.511 0 0 1 -2.426 3.536 10.37 10.37 0 0 1 -3.882 2.566q-.435.183-.888.392a21.072 21.072 0 0 1 12.915-12.784zm-19.158 46.833a1 1 0 1 1 1-1 1 1 0 0 1 -1 1zm2.94-1.594a3.008 3.008 0 0 0 -2.34-2.346c-.217-2.612 1.595-7.106 5.014-12.428a22.427 22.427 0 0 0 1.228 2.076c-5.527 7.536-5.154 9.65-4.174 10.629a1.987 1.987 0 0 0 1.506.586c1.525 0 4.279-1.135 9.7-5.183a163.238 163.238 0 0 0 16.374-14.493 163.4 163.4 0 0 0 14.494-16.379c5.986-8.019 5.6-10.2 4.6-11.2-.978-.979-3.092-1.354-10.629 4.175a22.079 22.079 0 0 0 -2.078-1.23q1.621-1.043 3.136-1.881a2.966 2.966 0 0 0 1.229.268 3 3 0 0 0 2.9-2.28c3.321-1.321 5.811-1.5 6.848-.474 1.442 1.447.912 6.4-5.328 15.592a109.881 109.881 0 0 1 -13.06 15.525 109.719 109.719 0 0 1 -15.521 13.059c-5.961 4.045-11.048 6.223-13.899 5.984zm25.914-4.623c.209-.229.42-.463.645-.714.62-.692 1.322-1.477 2.209-2.362a38.013 38.013 0 0 0 5.115-6.139 35.867 35.867 0 0 1 4.884-5.861 19.326 19.326 0 0 1 5.2-3.931 21.014 21.014 0 0 1 -18.053 19.007z"/><path d="m56 25a3 3 0 1 0 3-3 3 3 0 0 0 -3 3zm4 0a1 1 0 1 1 -1-1 1 1 0 0 1 1 1z"/><path d="m26 56a3 3 0 1 0 3 3 3 3 0 0 0 -3-3zm0 4a1 1 0 1 1 1-1 1 1 0 0 1 -1 1z"/><path d="m9 11a3 3 0 1 0 -3-3 3 3 0 0 0 3 3zm0-4a1 1 0 1 1 -1 1 1 1 0 0 1 1-1z"/><path d="m56 44h2v2h-2z"/><path d="m58 42h2v2h-2z"/><path d="m58 46h2v2h-2z"/><path d="m60 44h2v2h-2z"/><path d="m46 57h2v2h-2z"/><path d="m48 55h2v2h-2z"/><path d="m48 59h2v2h-2z"/><path d="m50 57h2v2h-2z"/><path d="m2 19h2v2h-2z"/><path d="m4 17h2v2h-2z"/><path d="m4 21h2v2h-2z"/><path d="m6 19h2v2h-2z"/><path d="m21 4h2v2h-2z"/><path d="m23 2h2v2h-2z"/><path d="m23 6h2v2h-2z"/><path d="m25 4h2v2h-2z"/></g></svg>