<?xml version="1.0" encoding="iso-8859-1"?>
<!-- Generator: Adobe Illustrator 19.0.0, SVG Export Plug-In . SVG Version: 6.00 Build 0)  -->
<svg version="1.1" id="Capa_1" xmlns="http://www.w3.org/2000/svg" xmlns:xlink="http://www.w3.org/1999/xlink" x="0px" y="0px"
	 viewBox="0 0 323.014 323.014" style="enable-background:new 0 0 323.014 323.014;" xml:space="preserve">
<path style="fill:#FFEACC;" d="M161.72,255.132c-51.6,0-93.6-42-93.6-93.6s42-93.6,93.6-93.6s93.6,42,93.6,93.6l0,0
	C255.32,213.132,213.32,255.132,161.72,255.132z"/>
<path style="fill:#FFE749;" d="M32.52,228.732c-14.8,0-23.6-3.2-25.6-9.2s2-13.6,13.2-24c13.2-11.6,27.6-21.6,43.2-30l5.2-3.2
	l0.8,6.4c0.4,2.8,0.8,6,1.2,8.8l0.4,2.8l-2.4,1.2c-22,12.4-32,20.8-30,26c0.4,1.6,4,3.2,11.6,3.2c10-0.4,20.4-2,30-4.4l2-0.8
	c58-15.6,114.4-37.2,168-64.8l2.8-1.6c27.6-15.2,32.8-24.4,32-27.2s-7.2-3.2-11.2-3.2c-9.6,0.4-19.2,2-28.4,4.4l-2.8,0.8l-1.6-2.4
	c-1.6-2.4-3.2-4.8-4.8-7.2l-3.6-5.2l6-1.2c16.4-4,33.6-6,50.8-6.8h2c15.2,0.4,23.2,3.2,25.6,8.8c1.2,3.2,5.2,14-35.6,41.2
	c-7.6,5.2-16.4,10.4-25.6,15.6c-26,14.4-52.8,26.8-80.4,37.2c-26.4,10.4-53.6,18.8-81.2,25.6l-4.8,1.2c-10,2.4-19.6,4-28,5.2
	C51.72,227.932,42.12,228.732,32.52,228.732L32.52,228.732z"/>
<g>
	<path style="fill:#9E8180;" d="M50.12,69.132c-8,0-14.4-6.4-14.4-14.4s6.4-14.4,14.4-14.4c3.6,0,7.6,1.6,10,4
		c5.6,5.6,5.6,14.8,0,20.4C57.72,67.532,53.72,69.132,50.12,69.132L50.12,69.132z"/>
	<path style="fill:#9E8180;" d="M294.12,49.932c-11.6,0-20.8-9.6-20.8-21.2s9.6-20.8,21.2-20.8c5.2,0,10.4,2,14.4,6
		c8.4,8,8.4,21.2,0.4,29.6C304.92,47.532,299.72,49.932,294.12,49.932L294.12,49.932z"/>
	<path style="fill:#9E8180;" d="M175.72,315.132c-7.2,0-12.8-5.6-12.8-12.8s5.6-12.8,12.8-12.8c3.2,0,6.4,1.2,8.8,3.6
		c3.6,3.6,4.8,9.2,2.8,14C185.32,311.932,180.92,315.132,175.72,315.132z"/>
</g>
<path style="fill:#603416;" d="M64.92,69.532c-8,8-20.8,8-29.2,0.4l-0.4-0.4c-8-8-8-21.2,0-29.6l0,0l0,0c8-8,21.2-8,29.6,0l0,0l0,0
	C72.92,48.332,72.92,61.532,64.92,69.532L64.92,69.532z M139.72,103.132c-2.8,1.2-5.6-0.4-6.8-2.8c-1.2-2.8,0.4-5.6,2.8-6.8l0,0
	c32.4-12.4,68.8,0,86.8,29.6c1.6,2.4,0.8,5.6-1.6,7.2c-2.4,1.6-5.6,0.8-7.2-1.6C198.52,103.132,167.32,92.332,139.72,103.132
	L139.72,103.132z M69.32,188.332c-6.8,3.6-13.2,8-19.6,12.4c-3.6,2.8-5.6,4-5.6,4c0.8,1.6,11.6,0,29.6-4.4c-0.8-2-2-4-2.8-6
	C70.52,192.332,69.72,190.332,69.32,188.332z M313.32,48.332c-10.8,10.8-28,10.8-38.8,0l0,0l0,0c-10.8-10.8-10.8-28-0.4-38.8
	c10.8-10.8,28-10.8,38.8-0.4l0,0l0.4,0.4C324.12,20.332,324.12,37.532,313.32,48.332L313.32,48.332L313.32,48.332z M293.72,45.932
	c9.2,0,16.8-7.6,16.8-16.8c0-4.4-1.6-8.8-4.8-12l-0.4-0.4c-6.8-6.4-17.6-6.4-24,0.4s-6.4,17.6,0.4,24l0,0
	C284.92,43.932,289.32,45.932,293.72,45.932L293.72,45.932z M189.32,315.932L189.32,315.932c-7.6,7.6-19.6,7.6-27.2,0
	s-7.6-19.6,0-27.2l0,0c7.6-7.6,19.6-7.6,27.2,0S196.92,308.332,189.32,315.932L189.32,315.932z M175.72,311.132c2.4,0,4.4-0.8,6-2.4
	l0,0c3.6-3.6,3.6-8.8,0-12.4s-8.8-3.6-12.4,0s-3.6,8.8,0,12.4C171.32,310.332,173.32,311.132,175.72,311.132L175.72,311.132z
	 M103.72,223.932c35.2,32,90,29.2,122-6c12.4-13.6,20-31.2,22-49.6c-22.8,12-46.4,22.4-70.4,31.6l0,0
	C153.32,209.532,128.92,217.532,103.72,223.932L103.72,223.932z M249.32,118.732c0.8,2,1.6,4,2.8,6c0.8,2,1.6,4.4,2.4,6.4
	c16-8.8,25.2-15.2,24.8-16.8c0,0-2.4,0.4-7.2,0.8C264.12,115.932,256.92,117.132,249.32,118.732L249.32,118.732z M239.32,101.532
	c2,2.4,3.6,4.8,5.2,7.6c8.8-2.4,18-3.6,26.8-4.4c9.6-0.8,15.6,1.2,17.6,6c2.8,7.2-10.4,19.2-33.6,32c-27.6,14.4-56,27.6-85.2,38.4
	c-29.2,11.6-58.8,21.2-88.8,28.8c-26,6-43.6,6.4-46.4-1.2c-1.6-4.8,1.2-10,8.8-16c7.2-5.6,15.2-10.4,23.2-14.8
	c-0.4-3.2-1.2-6-1.2-9.2c-15.2,8.4-29.2,18.4-42.4,29.6c-9.6,8.8-14,15.6-12.4,19.6c2.8,7.2,21.6,8.4,49.6,4.4
	c9.6-1.2,20.4-3.6,31.6-6h0.8c27.6-6.8,54.4-15.2,80.8-25.6l0,0c42.8-16.4,80-35.2,105.2-52.4c23.6-16,36.8-29.2,34-36.4
	c-1.6-4-9.2-6-22-6.4C273.72,95.532,256.12,97.532,239.32,101.532z M202.92,83.932c-2.8-1.2-4-4.4-2.8-6.8c1.2-2.8,4.4-4,6.8-2.8
	c0.4,0,0.4,0.4,0.8,0.4c8.8,4.8,16.8,10.8,23.6,18c19.6-4.8,39.6-7.6,59.6-8c17.2,0.4,28,4.8,31.2,13.2c4.8,12.4-10,30-38,48.8
	c-7.6,5.2-16.4,10.4-26,16c-1.6,53.6-46.4,95.6-99.6,94c-25.2-0.8-49.2-11.6-66.8-29.6c-10.8,2.4-20.8,4.4-30,5.6
	c-33.2,4.8-56,1.6-60.8-10.8c-3.2-8.4,2-19.2,14.8-31.2c15.2-13.2,31.6-24.4,49.2-33.6c1.6-53.6,46.4-95.6,99.6-94
	c4.8,0,10,0.8,14.8,1.6c2.8,0.4,4.8,3.2,4.4,6s-3.2,4.8-6,4.4l0,0c-46.8-8.8-92,22-100.8,69.2c-0.8,5.2-1.6,10.4-1.6,15.6
	c0,0.4,0,0.4,0,0.8c0,10.4,2,20.8,6,30.4c0.8,2,1.6,3.6,2.4,5.6l0.8,2c27.6-7.2,55.2-16.4,82-26.8c26.8-10,53.2-22,78.8-35.2l-0.8-2
	c-0.4-2-1.2-4-2-5.6c-1.2-3.6-2.8-6.8-4.8-10.4c-0.4-0.4-0.4-0.8-0.8-1.2C228.92,103.132,217.32,91.532,202.92,83.932L202.92,83.932
	z M50.12,65.132c5.6,0,10.4-4.8,10.4-10.4c0-2.8-1.2-5.2-3.2-7.2l0,0c-4-4-10.8-4-14.8,0l0,0c-4,4-4,10.8,0,14.8v0.4
	C44.92,63.932,47.32,65.132,50.12,65.132z"/>
<g>
</g>
<g>
</g>
<g>
</g>
<g>
</g>
<g>
</g>
<g>
</g>
<g>
</g>
<g>
</g>
<g>
</g>
<g>
</g>
<g>
</g>
<g>
</g>
<g>
</g>
<g>
</g>
<g>
</g>
</svg>
