<?xml version="1.0" encoding="iso-8859-1"?>
<!-- Generator: Adobe Illustrator 19.0.0, SVG Export Plug-In . SVG Version: 6.00 Build 0)  -->
<svg version="1.1" id="Capa_1" xmlns="http://www.w3.org/2000/svg" xmlns:xlink="http://www.w3.org/1999/xlink" x="0px" y="0px"
	 viewBox="0 0 512.002 512.002" style="enable-background:new 0 0 512.002 512.002;" xml:space="preserve">
<path style="fill:#E64A45;" d="M187.721,204.741c0,70.704-57.321,128.026-128.026,128.026c-18.854,0-34.14,15.286-34.14,34.14
	v25.605H51.16v34.14h170.701v17.07h68.28v-17.07h170.701v-34.14h25.605v-25.605c0-18.854-15.286-34.14-34.14-34.14
	c-70.704,0-128.026-57.321-128.026-128.026L187.721,204.741L187.721,204.741z"/>
<g>
	<path style="fill:#BA3C38;" d="M486.447,401.047h-59.745v-17.07h51.21v-17.07c0-14.143-11.463-25.605-25.605-25.605
		c-75.381-0.085-136.475-61.179-136.561-136.561h17.07c0.068,65.967,53.523,119.422,119.491,119.491
		c23.557,0.026,42.65,19.118,42.675,42.675v25.605C494.982,397.231,491.159,401.047,486.447,401.047z"/>
	<path style="fill:#BA3C38;" d="M85.3,401.047H25.555c-4.711,0-8.535-3.824-8.535-8.535v-25.605
		c0.026-23.557,19.118-42.65,42.675-42.675c65.967-0.068,119.422-53.523,119.491-119.491h17.07
		c-0.085,75.381-61.179,136.475-136.561,136.561c-14.143,0-25.605,11.463-25.605,25.605v17.07H85.3
		C85.3,383.977,85.3,401.047,85.3,401.047z"/>
	<rect x="102.37" y="383.977" style="fill:#BA3C38;" width="85.35" height="17.07"/>
	<rect x="324.281" y="383.977" style="fill:#BA3C38;" width="85.35" height="17.07"/>
</g>
<g>
	<rect x="68.23" y="426.652" style="fill:#FF9A2E;" width="17.07" height="85.35"/>
	<rect x="110.905" y="426.652" style="fill:#FF9A2E;" width="17.07" height="51.21"/>
	<rect x="110.905" y="494.932" style="fill:#FF9A2E;" width="17.07" height="17.07"/>
	<rect x="153.581" y="426.652" style="fill:#FF9A2E;" width="17.07" height="34.14"/>
	<rect x="153.581" y="477.862" style="fill:#FF9A2E;" width="17.07" height="17.07"/>
	<rect x="230.396" y="443.722" style="fill:#FF9A2E;" width="17.07" height="34.14"/>
	<rect x="230.396" y="494.932" style="fill:#FF9A2E;" width="17.07" height="17.07"/>
	<rect x="426.702" y="426.652" style="fill:#FF9A2E;" width="17.07" height="85.35"/>
	<rect x="384.027" y="426.652" style="fill:#FF9A2E;" width="17.07" height="51.21"/>
	<rect x="384.027" y="494.932" style="fill:#FF9A2E;" width="17.07" height="17.07"/>
	<rect x="341.351" y="426.652" style="fill:#FF9A2E;" width="17.07" height="34.14"/>
	<rect x="341.351" y="477.862" style="fill:#FF9A2E;" width="17.07" height="17.07"/>
	<rect x="264.536" y="443.722" style="fill:#FF9A2E;" width="17.07" height="34.14"/>
	<rect x="264.536" y="494.932" style="fill:#FF9A2E;" width="17.07" height="17.07"/>
</g>
<path style="fill:#D3D6DB;" d="M262.035,2.4c-3.388-3.201-8.68-3.201-12.069,0c-45.466,45.219-70.952,106.748-70.781,170.872
	v227.775c0,4.711,3.824,8.535,8.535,8.535h136.561c4.711,0,8.535-3.824,8.535-8.535V173.272
	C332.996,109.148,307.502,47.619,262.035,2.4z"/>
<g>
	<path style="fill:#4690BD;" d="M256.001,196.206L256.001,196.206c4.711,0,8.535,3.824,8.535,8.535v213.376
		c0,4.711-3.824,8.535-8.535,8.535l0,0c-4.711,0-8.535-3.824-8.535-8.535V204.741C247.466,200.029,251.29,196.206,256.001,196.206z"
		/>
	<path style="fill:#4690BD;" d="M221.861,59.645h68.28c4.711,0,8.535,3.824,8.535,8.535l0,0c0,4.711-3.824,8.535-8.535,8.535h-68.28
		c-4.711,0-8.535-3.824-8.535-8.535l0,0C213.326,63.469,217.15,59.645,221.861,59.645z"/>
	<path style="fill:#4690BD;" d="M256.001,170.601c-18.854,0-34.14-15.286-34.14-34.14s15.286-34.14,34.14-34.14
		s34.14,15.286,34.14,34.14S274.855,170.601,256.001,170.601z M256.001,119.39c-9.431,0-17.07,7.639-17.07,17.07
		c0,9.431,7.639,17.07,17.07,17.07s17.07-7.639,17.07-17.07S265.432,119.39,256.001,119.39z"/>
</g>
<g>
</g>
<g>
</g>
<g>
</g>
<g>
</g>
<g>
</g>
<g>
</g>
<g>
</g>
<g>
</g>
<g>
</g>
<g>
</g>
<g>
</g>
<g>
</g>
<g>
</g>
<g>
</g>
<g>
</g>
</svg>
